<!-- Generated by IcoMoon.io -->
<svg version="1.1" xmlns="http://www.w3.org/2000/svg" width="512" height="512" viewBox="0 0 512 512">
  <circle fill="gray" cx="256" cy="256" r="250"></circle>
  <path fill="black" d="M256 32c-123.712 0-224 100.288-224 224s100.288 224 224 224 224-100.288 224-224-100.288-224-224-224zM256 424c-92.784 0-168-75.216-168-168s75.216-168 168-168c92.784 0 168 75.216 168 168s-75.216 168-168 168zM172 256c0-46.392 37.608-84 84-84s84 37.608 84 84c0 46.392-37.608 84-84 84s-84-37.608-84-84z"></path>
</svg>
